<?xml version="1.0" standalone="no"?>
<!DOCTYPE svg PUBLIC "-//W3C//DTD SVG 20010904//EN"
 "http://www.w3.org/TR/2001/REC-SVG-20010904/DTD/svg10.dtd">
<svg version="1.0" xmlns="http://www.w3.org/2000/svg"
 width="48.000000pt" height="48.000000pt" viewBox="0 0 48.000000 48.000000"
 preserveAspectRatio="xMidYMid meet">

<g transform="translate(0.000000,48.000000) scale(0.100000,-0.100000)"
fill="#000000" stroke="none">
<path d="M81 363 c-44 -22 -71 -68 -71 -118 1 -79 55 -130 136 -130 28 0 58 6
67 13 15 13 15 16 0 38 -13 20 -21 24 -44 19 -41 -9 -65 1 -78 34 -9 21 -9 34
0 54 14 31 38 41 78 32 23 -5 31 -1 44 19 14 21 14 26 2 36 -25 21 -96 22
-134 3z"/>
<path d="M271 362 c-64 -35 -87 -111 -54 -179 43 -92 180 -98 233 -10 22 36
26 101 7 134 -35 63 -124 89 -186 55z m103 -67 c34 -35 28 -83 -15 -105 -37
-20 -89 12 -89 56 0 51 69 84 104 49z"/>
</g>
</svg>
