<?xml version="1.0" standalone="no"?>
<!DOCTYPE svg PUBLIC "-//W3C//DTD SVG 20010904//EN"
 "http://www.w3.org/TR/2001/REC-SVG-20010904/DTD/svg10.dtd">
<svg version="1.0" xmlns="http://www.w3.org/2000/svg"
 width="512.000000pt" height="512.000000pt" viewBox="0 0 512.000000 512.000000"
 preserveAspectRatio="xMidYMid meet">

<g transform="translate(0.000000,512.000000) scale(0.100000,-0.100000)"
fill="#000000" stroke="none">
<path d="M364 4700 c-103 -21 -203 -100 -252 -200 l-27 -55 0 -1885 0 -1885
22 -48 c34 -71 113 -150 186 -183 l62 -29 2205 0 2205 0 62 29 c73 33 152 112
186 183 l22 48 0 1885 0 1885 -22 48 c-34 71 -113 150 -186 183 l-62 29 -2180
1 c-1199 1 -2199 -2 -2221 -6z m4354 -306 c21 -15 22 -21 22 -189 l0 -175
-1317 -2 c-1243 -3 -1320 -4 -1351 -21 -20 -11 -56 -54 -99 -117 l-66 -100
-764 0 -763 0 0 294 c0 293 0 295 22 310 20 14 241 16 2158 16 1917 0 2138 -2
2158 -16z m22 -2158 l0 -1495 -22 -15 c-20 -14 -241 -16 -2158 -16 -1917 0
-2138 2 -2158 16 l-22 15 0 1374 0 1375 829 2 c824 3 830 3 858 24 15 11 45
45 66 75 20 30 51 73 67 97 l30 42 1255 0 1255 0 0 -1494z"/>
<path d="M581 4232 c-119 -60 -106 -236 20 -273 99 -30 189 39 189 144 0 78
-68 147 -145 147 -16 0 -45 -8 -64 -18z"/>
<path d="M1044 4230 c-139 -69 -89 -280 68 -280 74 0 147 74 148 149 0 50 -37
108 -85 131 -52 25 -80 25 -131 0z"/>
<path d="M1515 4236 c-39 -17 -64 -46 -80 -93 -17 -47 -10 -88 23 -132 85
-114 262 -54 262 90 0 107 -108 178 -205 135z"/>
<path d="M805 3251 c-11 -5 -32 -21 -47 -36 -72 -72 -49 -193 45 -236 37 -16
68 -19 277 -19 225 0 238 1 280 23 102 51 113 183 22 252 -25 19 -44 20 -292
22 -146 1 -274 -2 -285 -6z"/>
<path d="M3010 3244 c-118 -31 -250 -116 -285 -185 -33 -63 -9 -156 49 -194
62 -41 130 -28 214 40 23 19 59 39 80 45 218 60 406 -133 336 -346 -15 -43
-55 -87 -352 -386 -275 -276 -344 -341 -385 -358 -96 -42 -211 -22 -293 49
-19 17 -52 35 -75 41 -103 28 -203 -69 -179 -173 10 -45 25 -66 80 -112 144
-120 357 -160 536 -100 44 15 102 40 129 58 28 17 198 177 378 356 355 353
410 419 449 544 32 100 32 244 1 342 -57 182 -215 332 -399 379 -76 20 -210
20 -284 0z"/>
<path d="M804 2856 c-89 -39 -117 -164 -52 -234 50 -52 47 -52 485 -52 389 0
409 1 441 20 101 62 95 212 -11 260 -39 18 -69 20 -437 19 -308 0 -402 -3
-426 -13z"/>
<path d="M2426 2654 c-144 -35 -162 -49 -544 -428 -194 -193 -368 -373 -386
-401 -141 -216 -121 -499 49 -692 191 -217 527 -251 760 -78 81 61 105 97 105
160 0 88 -57 145 -145 145 -51 0 -64 -6 -144 -67 -55 -42 -133 -59 -202 -44
-63 14 -95 31 -137 72 -57 56 -77 104 -77 189 0 64 4 83 28 126 38 69 655 683
712 709 52 24 134 31 189 15 24 -6 67 -30 96 -52 28 -21 63 -44 77 -49 109
-41 222 64 191 179 -13 50 -98 129 -180 170 -122 60 -265 77 -392 46z"/>
</g>
</svg>
