<?xml version="1.0" standalone="no"?>
<!DOCTYPE svg PUBLIC "-//W3C//DTD SVG 20010904//EN"
 "http://www.w3.org/TR/2001/REC-SVG-20010904/DTD/svg10.dtd">
<svg version="1.0" xmlns="http://www.w3.org/2000/svg"
 width="512.000000pt" height="512.000000pt" viewBox="0 0 512.000000 512.000000"
 preserveAspectRatio="xMidYMid meet">

<g transform="translate(0.000000,512.000000) scale(0.100000,-0.100000)"
fill="#ff7f50" stroke="none">
<path d="M472 4647 l-472 -472 870 -870 870 -870 -178 -178 -179 -178 -59 15
c-285 74 -597 20 -848 -148 -340 -227 -523 -636 -462 -1033 19 -128 48 -212
126 -377 l62 -129 236 235 c130 130 252 244 271 253 40 20 98 16 137 -10 55
-36 81 -123 53 -178 -6 -12 -120 -131 -252 -264 l-241 -242 138 -66 c263 -125
462 -159 697 -119 424 73 755 381 862 803 30 119 30 380 1 488 l-20 72 178
178 178 178 633 -632 632 -632 703 -231 c387 -128 705 -230 706 -229 2 2 -102
321 -230 708 l-232 704 -631 631 -631 631 174 174 174 173 68 -18 c107 -29
399 -27 509 3 460 126 771 505 802 978 12 181 -30 359 -133 574 l-64 135 -243
-241 c-275 -274 -288 -283 -374 -247 -25 10 -54 30 -65 44 -22 30 -33 88 -24
127 5 18 92 113 254 275 l246 247 -145 71 c-189 92 -297 121 -479 127 -112 4
-152 1 -239 -17 -219 -45 -379 -130 -537 -285 -151 -148 -239 -297 -292 -494
-23 -85 -25 -115 -25 -261 0 -132 4 -180 20 -242 l20 -76 -173 -173 c-95 -95
-175 -171 -178 -169 -3 3 -330 329 -728 725 -398 396 -788 784 -868 862 l-145
143 -473 -473z m3691 156 c4 -3 -34 -48 -84 -100 -115 -119 -158 -202 -166
-320 -9 -134 27 -238 117 -337 96 -105 253 -159 391 -136 110 19 177 57 288
165 l100 97 7 -48 c4 -26 4 -82 1 -125 -17 -216 -112 -399 -280 -540 -216
-182 -533 -223 -801 -105 -32 14 -64 26 -70 26 -6 0 -444 -433 -972 -962
l-962 -963 38 -100 c50 -128 64 -215 57 -335 -7 -118 -27 -192 -78 -296 -94
-192 -279 -343 -484 -399 -71 -19 -227 -31 -279 -21 l-37 7 91 96 c65 69 100
116 128 171 36 74 37 79 37 187 0 108 -1 113 -37 186 -90 181 -284 286 -469
251 -109 -20 -182 -62 -289 -168 l-97 -95 -6 38 c-25 150 29 372 125 510 214
309 584 419 935 278 l86 -35 866 859 c476 473 912 906 969 963 l102 103 -35
87 c-20 48 -42 122 -50 164 -78 405 184 800 590 889 63 14 257 20 268 8z
m-3103 -218 l105 -105 -263 -263 -262 -262 -107 108 -108 107 260 260 c143
143 262 260 265 260 3 0 52 -47 110 -105z m258 -782 l-263 -263 -102 102 -103
103 262 262 263 263 102 -102 103 -103 -262 -262z m894 -895 l-262 -263 -340
340 -340 340 262 262 263 263 340 -340 340 -340 -263 -262z m1762 -1313 l-56
-20 -48 -129 c-27 -71 -52 -132 -57 -137 -4 -4 -66 -29 -137 -56 l-128 -48
-19 -49 c-10 -26 -21 -51 -24 -54 -3 -3 -197 185 -430 418 l-425 425 262 262
263 263 427 -427 428 -427 -56 -21z m354 -278 c51 -51 66 -74 86 -133 l24 -71
-213 -213 -213 -212 -75 22 c-66 20 -82 29 -137 85 l-62 62 24 59 23 58 134
51 134 50 46 127 c25 69 50 130 54 135 10 9 87 42 102 42 6 1 38 -27 73 -62z
m269 -682 c28 -85 48 -155 45 -155 -4 0 -76 23 -161 51 l-153 51 103 104 c57
57 106 104 109 104 3 0 29 -70 57 -155z"/>
</g>
</svg>
