<?xml version="1.0" encoding="UTF-8"?>
<!DOCTYPE svg PUBLIC "-//W3C//DTD SVG 1.1//EN" "http://www.w3.org/Graphics/SVG/1.1/DTD/svg11.dtd">
<svg xmlns="http://www.w3.org/2000/svg" version="1.1" width="100px" height="100px" style="shape-rendering:geometricPrecision; text-rendering:geometricPrecision; image-rendering:optimizeQuality; fill-rule:evenodd; clip-rule:evenodd" xmlns:xlink="http://www.w3.org/1999/xlink">
<g><path style="opacity:0.965" fill="#ff7e50" d="M 24.5,3.5 C 41.17,3.3334 57.8367,3.50007 74.5,4C 76.3333,5.16667 77.8333,6.66667 79,8.5C 79.6667,35.8333 79.6667,63.1667 79,90.5C 77.8333,92.3333 76.3333,93.8333 74.5,95C 57.8333,95.6667 41.1667,95.6667 24.5,95C 22.6667,93.8333 21.1667,92.3333 20,90.5C 19.3333,63.1667 19.3333,35.8333 20,8.5C 21.3657,6.63834 22.8657,4.97167 24.5,3.5 Z M 26.5,8.5 C 27.675,8.28099 28.675,8.61432 29.5,9.5C 30.1609,12.9919 31.4942,16.1586 33.5,19C 44.1667,19.6667 54.8333,19.6667 65.5,19C 67.3445,16.1488 68.5112,12.9822 69,9.5C 70.9376,8.13983 72.6043,8.47316 74,10.5C 75.638,35.4373 75.9713,60.4373 75,85.5C 74.7265,87.3289 73.8932,88.8289 72.5,90C 58.2354,91.6149 43.9021,91.9482 29.5,91C 27.6711,90.7265 26.1711,89.8932 25,88.5C 23.362,63.5627 23.0287,38.5627 24,13.5C 24.3661,11.5483 25.1995,9.88159 26.5,8.5 Z M 43.5,9.5 C 45.5273,9.33788 47.5273,9.50454 49.5,10C 50.8333,11 50.8333,12 49.5,13C 47.5,13.6667 45.5,13.6667 43.5,13C 42.3157,11.8545 42.3157,10.6879 43.5,9.5 Z M 54.5,10.5 C 56.337,10.6395 56.6704,11.3061 55.5,12.5C 54.7025,12.0431 54.3691,11.3764 54.5,10.5 Z"/></g>
</svg>
