<?xml version="1.0" encoding="UTF-8"?>
<!DOCTYPE svg PUBLIC "-//W3C//DTD SVG 1.1//EN" "http://www.w3.org/Graphics/SVG/1.1/DTD/svg11.dtd">
<svg xmlns="http://www.w3.org/2000/svg" version="1.1" width="96px" height="96px" style="shape-rendering:geometricPrecision; text-rendering:geometricPrecision; image-rendering:optimizeQuality; fill-rule:evenodd; clip-rule:evenodd" xmlns:xlink="http://www.w3.org/1999/xlink">
<g><path style="opacity:0.889" fill="#ff7f50" d="M 15.5,20.5 C 37.5911,20.0218 59.5911,20.5218 81.5,22C 82.7014,22.9025 83.5348,24.0692 84,25.5C 84.9675,40.9261 84.6342,56.2594 83,71.5C 82.0975,72.7014 80.9308,73.5348 79.5,74C 57.4114,74.9778 35.4114,74.6444 13.5,73C 12.7894,71.7453 11.956,70.5786 11,69.5C 10.3333,54.8333 10.3333,40.1667 11,25.5C 12.025,23.313 13.525,21.6464 15.5,20.5 Z M 22.5,27.5 C 38.9949,26.3384 55.6616,26.1717 72.5,27C 64.5915,35.4123 56.2581,43.2457 47.5,50.5C 38.8739,43.2096 30.5406,35.5429 22.5,27.5 Z M 17.5,32.5 C 22.8123,37.1456 27.8123,42.1456 32.5,47.5C 27.8485,52.6519 23.0151,57.6519 18,62.5C 17.5002,52.5056 17.3335,42.5056 17.5,32.5 Z M 76.5,32.5 C 77.6583,42.3247 77.8249,52.3247 77,62.5C 71.9849,57.6519 67.1515,52.6519 62.5,47.5C 67.1884,42.4797 71.8551,37.4797 76.5,32.5 Z M 37.5,52.5 C 44.0027,59.1119 50.5027,59.1119 57,52.5C 62.1667,57.6667 67.3333,62.8333 72.5,68C 55.8333,68.6667 39.1667,68.6667 22.5,68C 27.7031,62.9646 32.7031,57.798 37.5,52.5 Z"/></g>
</svg>
