<?xml version="1.0" standalone="no"?>
<!DOCTYPE svg PUBLIC "-//W3C//DTD SVG 20010904//EN"
 "http://www.w3.org/TR/2001/REC-SVG-20010904/DTD/svg10.dtd">
<svg version="1.0" xmlns="http://www.w3.org/2000/svg" viewBox="0 0 512.000000 512.000000"
 preserveAspectRatio="xMidYMid meet">

<g transform="translate(0.000000,512.000000) scale(0.100000,-0.100000)"
fill="#ff7f50" stroke="none">
<path d="M1120 4627 c-74 -23 -160 -138 -160 -213 0 -18 -8 -19 -131 -15 -169
4 -207 -6 -274 -73 -68 -69 -75 -97 -75 -310 l0 -176 -56 0 c-87 0 -133 -18
-189 -75 -102 -101 -102 -229 0 -330 56 -57 102 -75 189 -75 l56 0 0 -40 0
-40 80 0 80 0 0 455 0 456 25 24 c23 24 31 25 135 25 104 0 112 -1 135 -25
l25 -24 0 -591 0 -591 -25 -24 c-23 -24 -31 -25 -135 -25 -104 0 -112 1 -135
25 -21 20 -25 34 -25 80 l0 55 -80 0 -80 0 0 -56 c0 -87 18 -133 75 -190 67
-67 105 -77 274 -73 123 4 131 3 131 -15 0 -79 87 -190 166 -214 61 -18 260
-16 317 4 57 19 128 93 145 152 8 26 12 127 12 296 l0 256 40 0 40 0 0 -166
c0 -106 4 -173 12 -187 6 -12 60 -87 120 -166 l108 -144 0 -145 c0 -130 -13
-238 -121 -1036 -110 -801 -120 -893 -108 -915 28 -49 104 -53 133 -8 9 14 59
355 135 912 117 857 121 897 121 1066 l0 175 -120 162 -120 163 0 144 0 145
40 0 c29 0 40 -4 40 -15 0 -9 11 -27 25 -40 32 -33 78 -33 110 0 l25 24 0 351
0 351 25 24 c49 50 135 15 135 -55 0 -41 39 -80 80 -80 41 0 80 39 80 80 0 41
39 80 80 80 41 0 80 -39 80 -80 0 -41 39 -80 80 -80 41 0 80 39 80 80 0 41 39
80 80 80 41 0 80 -39 80 -80 0 -41 39 -80 80 -80 41 0 80 39 80 80 0 41 39 80
80 80 19 0 40 -9 55 -25 l25 -24 0 -483 -1 -483 -119 -159 -120 -159 0 -181 1
-181 163 -894 c148 -812 165 -896 186 -913 32 -26 76 -23 105 7 14 13 25 32
25 42 0 10 -72 414 -160 898 -159 877 -160 880 -160 1025 l1 145 119 159 120
159 0 174 0 173 80 0 80 0 0 -256 c0 -172 4 -270 12 -298 16 -55 99 -138 154
-154 61 -18 260 -16 317 4 78 27 157 132 157 210 0 18 8 19 134 16 171 -5 216
8 279 78 24 26 49 66 55 88 7 24 12 108 12 216 l0 176 58 0 c87 0 144 23 195
80 90 100 90 220 0 320 -51 57 -108 80 -195 80 l-58 0 0 40 0 40 -80 0 -80 0
0 -455 0 -456 -25 -24 c-23 -24 -31 -25 -135 -25 -104 0 -112 1 -135 25 l-25
24 0 591 0 591 25 24 c23 24 31 25 135 25 104 0 112 -1 135 -25 21 -20 25 -34
25 -80 l0 -55 80 0 80 0 0 56 c0 81 -18 129 -67 184 -63 70 -108 83 -279 78
-126 -3 -134 -2 -134 16 0 78 -79 183 -157 210 -57 20 -256 22 -317 4 -55 -16
-138 -99 -154 -154 -8 -28 -12 -126 -12 -298 l0 -256 -78 0 -77 0 -12 51 c-22
93 -94 162 -187 181 -64 14 -129 2 -177 -33 -29 -20 -29 -20 -56 -1 -16 10
-43 24 -62 30 -66 23 -144 11 -203 -30 -28 -19 -28 -19 -55 0 -16 10 -43 24
-62 30 -66 23 -144 11 -203 -30 -28 -19 -28 -19 -55 0 -61 42 -132 52 -207 30
-78 -23 -166 -135 -166 -212 0 -14 -19 -16 -160 -16 l-160 0 0 256 c0 169 -4
270 -12 296 -17 59 -88 133 -145 152 -55 19 -267 21 -323 3z m295 -172 l25
-24 0 -831 0 -831 -25 -24 c-23 -24 -31 -25 -135 -25 -104 0 -112 1 -135 25
l-25 24 0 831 0 831 25 24 c23 24 31 25 135 25 104 0 112 -1 135 -25z m2560 0
l25 -24 0 -831 0 -831 -25 -24 c-23 -24 -31 -25 -135 -25 -104 0 -112 1 -135
25 l-25 24 0 831 0 831 25 24 c23 24 31 25 135 25 104 0 112 -1 135 -25z
m-2055 -855 l0 -160 -160 0 -160 0 0 160 0 160 160 0 160 0 0 -160z m1600 0
l0 -160 -80 0 -80 0 0 160 0 160 80 0 80 0 0 -160z m-3040 0 l0 -80 -55 0
c-67 0 -105 29 -105 80 0 51 38 80 105 80 l55 0 0 -80z m4295 55 c16 -15 25
-36 25 -55 0 -51 -38 -80 -105 -80 l-55 0 0 80 0 80 55 0 c46 0 60 -4 80 -25z"/>
</g>
</svg>
