<?xml version="1.0" standalone="no"?>
<!DOCTYPE svg PUBLIC "-//W3C//DTD SVG 20010904//EN"
 "http://www.w3.org/TR/2001/REC-SVG-20010904/DTD/svg10.dtd">
<svg version="1.0" xmlns="http://www.w3.org/2000/svg" viewBox="0 0 512.000000 512.000000"
 preserveAspectRatio="xMidYMid meet">

<g transform="translate(0.000000,512.000000) scale(0.100000,-0.100000)"
fill="#ff7f50" stroke="none">
<path d="M645 4470 c-108 -22 -225 -89 -296 -168 -63 -70 -117 -191 -129 -287
-7 -53 -10 -469 -8 -1240 3 -1094 4 -1163 22 -1215 30 -91 75 -165 137 -227
68 -67 128 -104 219 -135 64 -22 72 -23 753 -26 l688 -3 -3 -157 -3 -157 -556
-5 c-526 -5 -558 -6 -578 -24 -33 -30 -45 -78 -27 -119 30 -72 -104 -67 1696
-67 1800 0 1666 -5 1696 67 18 41 6 89 -27 119 -20 18 -52 19 -578 24 l-556 5
-3 157 -3 157 688 3 c632 3 693 5 743 22 91 30 165 75 227 137 67 68 104 128
136 219 l22 65 3 1160 c2 760 -1 1188 -7 1240 -8 59 -21 102 -50 161 -67 135
-157 218 -297 272 l-69 27 -1900 1 c-1045 1 -1918 -2 -1940 -6z m3857 -232
c75 -35 141 -104 168 -174 20 -55 20 -62 18 -1252 l-3 -1197 -24 -45 c-32 -61
-86 -116 -146 -148 l-50 -27 -1905 0 -1905 0 -51 27 c-28 15 -71 49 -96 76
-83 94 -78 2 -78 1333 0 1132 1 1181 19 1229 37 98 116 168 220 196 36 10 454
12 1911 11 l1865 -2 57 -27z m-1622 -3228 l0 -160 -320 0 -320 0 0 160 0 160
320 0 320 0 0 -160z"/>
<path d="M2433 3940 c-387 -49 -722 -289 -884 -634 -197 -421 -118 -914 201
-1250 342 -360 883 -451 1325 -223 655 338 807 1219 302 1753 -171 181 -363
290 -597 338 -98 20 -257 27 -347 16z m304 -226 c170 -35 313 -108 435 -223
135 -127 220 -268 265 -440 33 -128 35 -317 4 -433 -73 -276 -231 -475 -476
-598 -148 -75 -229 -93 -405 -93 -118 0 -160 4 -225 22 -309 84 -544 308 -639
609 -160 508 157 1043 684 1156 89 20 264 19 357 0z"/>
<path d="M2250 3318 c-25 -14 -58 -44 -75 -67 l-30 -43 -3 -361 c-2 -230 1
-375 7 -397 31 -107 179 -170 286 -121 48 21 536 303 578 333 16 12 41 46 54
76 49 106 15 209 -90 276 -29 18 -164 98 -302 177 -242 139 -252 144 -315 147
-54 3 -73 -1 -110 -20z m382 -349 c117 -67 219 -127 226 -134 11 -10 -37 -41
-241 -159 -140 -80 -257 -146 -261 -146 -3 0 -6 135 -6 301 l0 301 34 -20 c19
-11 130 -75 248 -143z"/>
</g>
</svg>
