<?xml version="1.0" standalone="no"?>
<!DOCTYPE svg PUBLIC "-//W3C//DTD SVG 20010904//EN"
 "http://www.w3.org/TR/2001/REC-SVG-20010904/DTD/svg10.dtd">
<svg version="1.0" xmlns="http://www.w3.org/2000/svg" viewBox="0 0 80.000000 80.000000"
 preserveAspectRatio="xMidYMid meet">

<g transform="translate(0.000000,80.000000) scale(0.100000,-0.100000)"
fill="#ff7f50" stroke="none">
<path d="M245 706 c-60 -28 -87 -56 -114 -116 -40 -88 -22 -169 58 -264 39
-46 41 -51 41 -116 0 -69 14 -100 44 -100 7 0 21 -9 31 -20 23 -25 47 -25 70
0 10 11 24 20 31 20 30 0 44 31 44 100 0 64 2 70 40 116 22 27 36 50 31 52
-15 5 -81 -70 -87 -100 -6 -28 -7 -28 -95 -28 -78 0 -89 2 -89 18 0 9 -22 44
-50 77 -72 87 -88 160 -51 240 36 81 123 132 207 122 44 -5 68 6 38 17 -33 13
-101 5 -149 -18z m185 -486 c0 -6 -27 -10 -60 -10 -33 0 -60 -4 -60 -10 0 -6
27 -10 60 -10 33 0 60 -4 60 -10 0 -6 -27 -10 -60 -10 -33 0 -60 -4 -60 -10 0
-6 27 -10 61 -10 37 0 58 -4 54 -10 -8 -13 -162 -13 -170 0 -3 6 3 10 14 10
12 0 21 5 21 10 0 6 -9 10 -20 10 -11 0 -20 5 -20 10 0 6 9 10 20 10 11 0 20
5 20 10 0 6 -9 10 -20 10 -11 0 -20 5 -20 10 0 6 37 10 90 10 53 0 90 -4 90
-10z m-65 -120 c-3 -5 -15 -10 -25 -10 -10 0 -22 5 -25 10 -4 6 7 10 25 10 18
0 29 -4 25 -10z"/>
<path d="M497 709 c-5 -17 -11 -21 -34 -16 -39 7 -64 -16 -56 -55 5 -24 2 -30
-16 -35 -30 -8 -30 -58 0 -66 17 -5 21 -11 16 -34 -7 -39 16 -64 55 -56 24 5
30 2 35 -16 8 -30 58 -30 66 0 5 18 11 21 35 16 39 -8 62 17 55 56 -5 23 -1
29 16 34 30 8 30 58 0 66 -17 5 -21 11 -16 34 7 39 -16 64 -55 56 -24 -5 -30
-2 -35 16 -8 30 -58 30 -66 0z m55 -21 c10 -14 24 -21 45 -20 29 1 32 -2 31
-30 -1 -21 6 -36 23 -49 l24 -19 -24 -19 c-17 -13 -24 -28 -23 -49 1 -28 -2
-31 -30 -30 -21 1 -36 -6 -49 -23 l-19 -24 -19 24 c-13 17 -28 24 -49 23 -28
-1 -31 2 -30 30 1 21 -6 36 -23 49 l-24 19 24 19 c17 13 24 28 23 49 -1 28 2
31 31 30 21 -1 35 6 45 20 8 12 18 22 22 22 4 0 14 -10 22 -22z"/>
<path d="M490 610 c-11 -11 -20 -29 -20 -40 0 -11 9 -29 20 -40 11 -11 29 -20
40 -20 26 0 60 34 60 60 0 11 -9 29 -20 40 -11 11 -29 20 -40 20 -11 0 -29 -9
-40 -20z m70 -15 c26 -32 -13 -81 -47 -59 -23 14 -28 41 -13 59 16 19 44 19
60 0z"/>
<path d="M330 670 c0 -5 5 -10 10 -10 6 0 10 5 10 10 0 6 -4 10 -10 10 -5 0
-10 -4 -10 -10z"/>
<path d="M290 659 c0 -5 5 -7 10 -4 6 3 10 8 10 11 0 2 -4 4 -10 4 -5 0 -10
-5 -10 -11z"/>
<path d="M210 620 c0 -5 5 -10 10 -10 6 0 10 5 10 10 0 6 -4 10 -10 10 -5 0
-10 -4 -10 -10z"/>
<path d="M170 539 c0 -5 5 -7 10 -4 6 3 10 8 10 11 0 2 -4 4 -10 4 -5 0 -10
-5 -10 -11z"/>
<path d="M160 500 c0 -5 5 -10 10 -10 6 0 10 5 10 10 0 6 -4 10 -10 10 -5 0
-10 -4 -10 -10z"/>
<path d="M170 460 c0 -5 5 -10 11 -10 5 0 7 5 4 10 -3 6 -8 10 -11 10 -2 0 -4
-4 -4 -10z"/>
<path d="M210 380 c0 -5 5 -10 10 -10 6 0 10 5 10 10 0 6 -4 10 -10 10 -5 0
-10 -4 -10 -10z"/>
</g>
</svg>
