<?xml version="1.0" standalone="no"?>
<!DOCTYPE svg PUBLIC "-//W3C//DTD SVG 20010904//EN"
 "http://www.w3.org/TR/2001/REC-SVG-20010904/DTD/svg10.dtd">
<svg version="1.0" xmlns="http://www.w3.org/2000/svg" viewBox="0 0 512.000000 512.000000" preserveAspectRatio="xMidYMid meet">

<g transform="translate(0.000000,512.000000) scale(0.100000,-0.100000)"
fill="#ff7f50" stroke="none">
<path d="M3160 4822 l0 -299 -70 -12 c-299 -54 -464 -375 -331 -645 16 -33 54
-85 83 -114 58 -59 169 -119 233 -128 22 -3 50 -7 63 -10 l22 -4 0 -225 0
-225 304 0 303 0 6 -60 c11 -130 115 -276 240 -338 272 -137 594 26 648 328
l12 70 224 0 223 0 0 199 c0 364 -47 587 -180 851 -152 303 -410 564 -709 718
-278 144 -496 192 -872 192 l-199 0 0 -298z m575 -32 c465 -96 847 -428 1004
-874 46 -131 81 -312 81 -423 l0 -33 -225 0 -225 0 0 -149 c0 -82 -3 -163 -6
-181 -10 -47 -71 -107 -118 -115 -53 -10 -123 19 -153 64 -22 32 -23 44 -23
207 l0 174 -302 2 -303 3 -3 228 -2 227 -171 0 c-188 0 -210 5 -250 62 -17 23
-23 46 -24 84 0 64 23 100 85 132 40 20 58 22 202 22 l158 0 0 301 0 302 93
-7 c50 -4 133 -16 182 -26z"/>
<path d="M2067 4509 c-1002 -88 -1827 -825 -2021 -1804 -194 -975 263 -1957
1131 -2427 785 -427 1735 -356 2448 183 397 299 697 749 819 1229 46 181 66
329 73 542 l6 178 -531 0 -532 0 0 -172 c0 -193 -7 -218 -72 -259 -41 -25
-121 -22 -161 7 -56 40 -67 84 -67 262 l0 162 -375 0 -375 0 0 450 0 450 -162
0 c-178 0 -222 11 -262 67 -29 40 -32 120 -7 161 41 65 66 72 259 72 l172 0 0
455 0 455 -127 -1 c-71 -1 -168 -5 -216 -10z m41 -446 l-3 -148 -62 -7 c-215
-24 -383 -218 -383 -443 0 -226 158 -410 384 -447 l66 -11 0 -298 0 -299 -224
0 -224 0 -6 28 c-2 15 -8 45 -11 67 -11 66 -63 162 -119 219 -257 264 -705
120 -767 -246 l-11 -68 -220 0 -221 0 7 69 c4 38 18 122 31 186 150 723 714
1308 1438 1491 97 25 247 51 300 53 l28 1 -3 -147z m-819 -1530 c58 -44 66
-73 70 -255 l3 -168 374 0 374 0 0 -375 0 -375 148 0 c169 0 213 -9 258 -54
63 -63 54 -161 -19 -220 l-39 -31 -174 -3 -174 -4 0 -370 0 -371 -69 7 c-38 4
-122 18 -186 31 -690 143 -1264 669 -1468 1346 -34 110 -77 330 -77 390 l0 29
369 0 369 0 4 173 3 174 29 37 c16 21 43 44 60 52 40 18 111 12 145 -13z
m1579 -492 c39 -226 221 -381 448 -381 225 0 414 167 442 390 l7 55 224 3 223
2 -7 -62 c-41 -376 -202 -750 -447 -1043 -301 -360 -710 -595 -1176 -675 -63
-11 -127 -20 -143 -20 l-29 0 0 219 0 219 68 11 c220 37 382 226 382 446 0
170 -102 333 -252 403 -60 29 -74 33 -160 47 l-38 6 0 224 0 225 223 0 223 0
12 -69z"/>
</g>
</svg>
